<mxfile host="app.diagrams.net" modified="2023-10-04T17:20:53.115Z" agent="Mozilla/5.0 (Windows NT 10.0; Win64; x64) AppleWebKit/537.36 (KHTML, like Gecko) Chrome/117.0.0.0 Safari/537.36" version="22.0.2" etag="jCic-sojPzTqoW6Rbe7z" type="github">
  <diagram name="Page-1" id="C55U3jePrFZOoLJbwRH2">
    <mxGraphModel>
      <root>
        <mxCell id="0" />
        <mxCell id="1" parent="0" />
      </root>
    </mxGraphModel>
  </diagram>
</mxfile>
